<svg xmlns="http://www.w3.org/2000/svg" xmlns:xlink="http://www.w3.org/1999/xlink" width="500" zoomAndPan="magnify" viewBox="0 0 375 374.999991" height="500" preserveAspectRatio="xMidYMid meet" version="1.0"><defs><g/><clipPath id="39c8abc8c3"><path d="M 175.644531 158.414062 L 216 158.414062 L 216 169 L 175.644531 169 Z M 175.644531 158.414062 " clip-rule="nonzero"/></clipPath><clipPath id="db8b09c7e5"><path d="M 222.574219 158.414062 L 263 158.414062 L 263 169 L 222.574219 169 Z M 222.574219 158.414062 " clip-rule="nonzero"/></clipPath><clipPath id="415787cef0"><path d="M 199.109375 213.246094 L 243.359375 213.246094 L 243.359375 214 L 199.109375 214 Z M 199.109375 213.246094 " clip-rule="nonzero"/></clipPath><clipPath id="618d27b8d3"><path d="M 205 215 L 237 215 L 237 226.664062 L 205 226.664062 Z M 205 215 " clip-rule="nonzero"/></clipPath></defs><path fill="#080204" d="M 218.238281 191.570312 C 218.238281 202.71875 209.183594 211.757812 198.015625 211.757812 C 186.84375 211.757812 177.792969 202.71875 177.792969 191.570312 C 177.792969 180.421875 186.84375 171.386719 198.015625 171.386719 C 209.183594 171.386719 218.238281 180.421875 218.238281 191.570312 " fill-opacity="1" fill-rule="nonzero"/><path fill="#ffffff" d="M 214.59375 187.457031 C 214.59375 193.058594 210.046875 197.597656 204.4375 197.597656 C 198.824219 197.597656 194.277344 193.058594 194.277344 187.457031 C 194.277344 181.855469 198.824219 177.316406 204.4375 177.316406 C 210.046875 177.316406 214.59375 181.855469 214.59375 187.457031 " fill-opacity="1" fill-rule="nonzero"/><path fill="#ffffff" d="M 196 198.9375 C 196 202.109375 193.425781 204.679688 190.25 204.679688 C 187.074219 204.679688 184.5 202.109375 184.5 198.9375 C 184.5 195.765625 187.074219 193.199219 190.25 193.199219 C 193.425781 193.199219 196 195.765625 196 198.9375 " fill-opacity="1" fill-rule="nonzero"/><g clip-path="url(#39c8abc8c3)"><path fill="#080204" d="M 214.019531 168.132812 C 213.542969 168.132812 213.066406 167.957031 212.695312 167.601562 C 209.234375 164.292969 202.339844 162.25 195.140625 162.398438 C 184.449219 162.621094 179.171875 167.546875 179.121094 167.597656 C 178.355469 168.328125 177.140625 168.304688 176.410156 167.542969 C 175.675781 166.78125 175.699219 165.570312 176.460938 164.839844 C 176.71875 164.59375 182.863281 158.824219 195.0625 158.574219 C 203.355469 158.402344 211.125 160.800781 215.347656 164.835938 C 216.109375 165.570312 216.136719 166.78125 215.40625 167.542969 C 215.027344 167.933594 214.523438 168.132812 214.019531 168.132812 " fill-opacity="1" fill-rule="nonzero"/></g><g fill="#0081c9" fill-opacity="1"><g transform="translate(270.277637, 208.458573)"><g><path d="M 31.476562 -49.457031 L 31.070312 -49.457031 C 27.339844 -49.457031 25.304688 -47.421875 25.304688 -43.691406 C 25.371094 -40.09375 25.371094 -36.566406 25.441406 -33.039062 C 23.609375 -36.089844 20.625 -38.058594 16.890625 -38.058594 C 8.886719 -38.058594 2.441406 -31.34375 2.441406 -17.910156 C 2.441406 -3.664062 8.886719 0.746094 17.097656 0.746094 C 21.710938 0.746094 24.761719 -1.558594 26.59375 -4.003906 C 26.796875 -3.324219 26.933594 -2.644531 27.136719 -1.96875 C 27.613281 -0.609375 29.375 0 32.5625 0 C 35.617188 0 37.246094 -2.035156 37.175781 -5.765625 C 37.109375 -9.632812 37.042969 -13.363281 37.042969 -17.367188 C 37.042969 -26.324219 37.175781 -34.800781 37.246094 -43.691406 C 37.246094 -47.421875 35.210938 -49.457031 31.476562 -49.457031 Z M 20.285156 -8.820312 C 15.941406 -8.820312 13.433594 -11.398438 13.433594 -18.589844 C 13.433594 -26.933594 16.484375 -28.902344 20.011719 -28.902344 C 22.457031 -28.902344 24.625 -27.949219 25.441406 -25.167969 C 25.441406 -22.589844 25.441406 -20.011719 25.371094 -17.367188 C 25.304688 -15.128906 25.238281 -13.027344 25.238281 -10.855469 C 24.015625 -9.496094 22.589844 -8.820312 20.285156 -8.820312 Z M 20.285156 -8.820312 "/></g></g></g><g fill="#0081c9" fill-opacity="1"><g transform="translate(311.183947, 208.458573)"><g><path d="M 37.109375 -17.367188 C 37.109375 -22.253906 37.175781 -26.933594 37.246094 -31.683594 C 37.246094 -35.480469 35.210938 -37.515625 31.476562 -37.515625 L 31.070312 -37.515625 C 27.339844 -37.515625 25.304688 -35.480469 25.371094 -31.75 C 25.441406 -26.933594 25.507812 -22.253906 25.371094 -17.367188 C 25.371094 -12.28125 23.472656 -9.703125 20.285156 -9.632812 C 17.640625 -9.566406 15.738281 -11.53125 15.738281 -15.398438 C 15.738281 -20.964844 15.808594 -26.253906 15.875 -31.75 C 15.875 -35.480469 13.839844 -37.515625 10.109375 -37.515625 L 9.703125 -37.515625 C 5.96875 -37.515625 3.933594 -35.480469 3.933594 -31.75 C 4.003906 -25.507812 4.136719 -19.539062 4.003906 -13.230469 C 3.800781 -2.917969 8.074219 0.746094 15.332031 0.746094 C 20.488281 0.746094 24.695312 -2.375 26.59375 -7.667969 L 26.867188 -7.53125 C 26.867188 4.070312 22.523438 7.191406 12.074219 6.648438 C 8.207031 6.511719 5.96875 7.734375 5.765625 10.71875 C 5.496094 13.839844 6.851562 16.144531 10.242188 16.757812 C 11.667969 16.960938 13.230469 17.097656 14.789062 17.097656 C 28.492188 17.097656 37.449219 9.835938 37.175781 -8.820312 C 37.175781 -11.667969 37.109375 -14.449219 37.109375 -17.367188 Z M 37.109375 -17.367188 "/></g></g></g><path fill="#080204" d="M 265.167969 191.570312 C 265.167969 202.71875 256.113281 211.757812 244.941406 211.757812 C 233.773438 211.757812 224.71875 202.71875 224.71875 191.570312 C 224.71875 180.421875 233.773438 171.386719 244.941406 171.386719 C 256.113281 171.386719 265.167969 180.421875 265.167969 191.570312 " fill-opacity="1" fill-rule="nonzero"/><path fill="#ffffff" d="M 261.523438 187.457031 C 261.523438 193.058594 256.976562 197.597656 251.363281 197.597656 C 245.753906 197.597656 241.207031 193.058594 241.207031 187.457031 C 241.207031 181.855469 245.753906 177.316406 251.363281 177.316406 C 256.976562 177.316406 261.523438 181.855469 261.523438 187.457031 " fill-opacity="1" fill-rule="nonzero"/><path fill="#ffffff" d="M 242.929688 198.9375 C 242.929688 202.109375 240.355469 204.679688 237.179688 204.679688 C 234.003906 204.679688 231.429688 202.109375 231.429688 198.9375 C 231.429688 195.765625 234.003906 193.199219 237.179688 193.199219 C 240.355469 193.199219 242.929688 195.765625 242.929688 198.9375 " fill-opacity="1" fill-rule="nonzero"/><g clip-path="url(#db8b09c7e5)"><path fill="#080204" d="M 260.949219 168.132812 C 260.472656 168.132812 259.996094 167.957031 259.621094 167.601562 C 256.164062 164.292969 249.269531 162.25 242.070312 162.398438 C 231.378906 162.621094 226.101562 167.546875 226.046875 167.597656 C 225.285156 168.328125 224.070312 168.304688 223.339844 167.542969 C 222.605469 166.78125 222.628906 165.570312 223.390625 164.839844 C 223.648438 164.59375 229.792969 158.824219 241.988281 158.574219 C 250.285156 158.402344 258.054688 160.800781 262.273438 164.835938 C 263.039062 165.570312 263.066406 166.78125 262.332031 167.542969 C 261.957031 167.933594 261.453125 168.132812 260.949219 168.132812 " fill-opacity="1" fill-rule="nonzero"/></g><g clip-path="url(#415787cef0)"><path fill="#f27596" d="M 200.878906 206.261719 C 200.878906 210.089844 196.171875 213.195312 190.363281 213.195312 C 184.550781 213.195312 179.84375 210.089844 179.84375 206.261719 C 179.84375 202.433594 184.554688 199.332031 190.363281 199.332031 C 196.171875 199.332031 200.878906 202.433594 200.878906 206.261719 Z M 240.554688 206.261719 C 240.554688 210.089844 245.265625 213.195312 251.074219 213.195312 C 256.886719 213.195312 261.59375 210.089844 261.59375 206.261719 C 261.59375 202.433594 256.886719 199.332031 251.074219 199.332031 C 245.265625 199.332031 240.554688 202.433594 240.554688 206.261719 Z M 240.554688 206.261719 " fill-opacity="1" fill-rule="nonzero"/></g><g clip-path="url(#618d27b8d3)"><path fill="#000000" d="M 220.71875 226.632812 C 211.882812 226.632812 205.21875 222.800781 205.21875 217.722656 C 205.21875 216.519531 206.183594 215.546875 207.375 215.546875 C 208.566406 215.546875 209.535156 216.519531 209.535156 217.722656 C 209.535156 219.582031 213.890625 222.277344 220.71875 222.277344 C 227.546875 222.277344 231.90625 219.582031 231.90625 217.722656 C 231.90625 216.519531 232.871094 215.546875 234.0625 215.546875 C 235.253906 215.546875 236.222656 216.519531 236.222656 217.722656 C 236.21875 222.800781 229.554688 226.632812 220.71875 226.632812 Z M 220.71875 226.632812 " fill-opacity="1" fill-rule="nonzero"/></g><g fill="#0081c9" fill-opacity="1"><g transform="translate(29.408622, 210.674956)"><g><path d="M 31.476562 -49.457031 L 31.070312 -49.457031 C 27.339844 -49.457031 25.304688 -47.421875 25.304688 -43.691406 C 25.371094 -40.09375 25.371094 -36.566406 25.441406 -33.039062 C 23.609375 -36.089844 20.625 -38.058594 16.890625 -38.058594 C 8.886719 -38.058594 2.441406 -31.34375 2.441406 -17.910156 C 2.441406 -3.664062 8.886719 0.746094 17.097656 0.746094 C 21.710938 0.746094 24.761719 -1.558594 26.59375 -4.003906 C 26.796875 -3.324219 26.933594 -2.644531 27.136719 -1.96875 C 27.613281 -0.609375 29.375 0 32.5625 0 C 35.617188 0 37.246094 -2.035156 37.175781 -5.765625 C 37.109375 -9.632812 37.042969 -13.363281 37.042969 -17.367188 C 37.042969 -26.324219 37.175781 -34.800781 37.246094 -43.691406 C 37.246094 -47.421875 35.210938 -49.457031 31.476562 -49.457031 Z M 20.285156 -8.820312 C 15.941406 -8.820312 13.433594 -11.398438 13.433594 -18.589844 C 13.433594 -26.933594 16.484375 -28.902344 20.011719 -28.902344 C 22.457031 -28.902344 24.625 -27.949219 25.441406 -25.167969 C 25.441406 -22.589844 25.441406 -20.011719 25.371094 -17.367188 C 25.304688 -15.128906 25.238281 -13.027344 25.238281 -10.855469 C 24.015625 -9.496094 22.589844 -8.820312 20.285156 -8.820312 Z M 20.285156 -8.820312 "/></g></g></g><g fill="#0081c9" fill-opacity="1"><g transform="translate(70.314932, 210.674956)"><g><path d="M 14.179688 0.679688 C 17.976562 0.679688 21.640625 -0.609375 24.355469 -3.257812 C 24.421875 -2.714844 24.492188 -2.171875 24.695312 -1.628906 C 24.964844 -0.542969 26.796875 0 30.257812 0 L 30.867188 0 C 34.53125 0 36.429688 -2.101562 36.226562 -5.902344 C 36.023438 -10.515625 36.023438 -16.417969 36.023438 -24.558594 C 36.023438 -33.648438 31.003906 -38.125 20.894531 -38.125 C 10.992188 -38.125 5.765625 -35.480469 4.207031 -30.191406 C 3.121094 -26.457031 5.902344 -24.289062 9.703125 -24.289062 L 10.378906 -24.289062 C 13.703125 -24.289062 13.976562 -26.117188 15.941406 -29.105469 C 16.757812 -30.324219 18.25 -30.800781 20.011719 -30.800781 C 23 -30.800781 24.355469 -29.308594 24.355469 -24.355469 L 24.355469 -22.046875 C 9.089844 -22.457031 2.101562 -18.046875 2.101562 -9.566406 C 2.101562 -2.441406 7.460938 0.679688 14.179688 0.679688 Z M 17.773438 -6.988281 C 14.585938 -6.988281 12.890625 -8.820312 12.890625 -11.398438 C 12.890625 -15.738281 18.316406 -16.484375 24.492188 -16.621094 L 24.492188 -10.515625 C 22.929688 -8.277344 20.828125 -6.988281 17.773438 -6.988281 Z M 17.773438 -6.988281 "/></g></g></g><g fill="#0081c9" fill-opacity="1"><g transform="translate(109.796633, 210.674956)"><g><path d="M 58.953125 -5.835938 C 58.886719 -11.941406 58.75 -17.640625 58.886719 -22.386719 C 59.15625 -33.582031 55.5625 -38.125 48.4375 -38.125 C 43.214844 -38.125 39.210938 -35.886719 36.632812 -31.140625 L 36.429688 -31.140625 C 34.9375 -36.023438 31.75 -38.125 26.867188 -38.125 C 21.640625 -38.125 17.640625 -35.886719 15.0625 -31.140625 L 14.992188 -31.140625 C 15.0625 -32.429688 15.0625 -33.515625 15.128906 -34.394531 C 15.128906 -36.429688 13.027344 -37.585938 9.292969 -37.585938 C 5.5625 -37.585938 3.527344 -35.550781 3.59375 -31.816406 C 3.664062 -27.476562 3.730469 -23.269531 3.730469 -18.792969 C 3.730469 -14.316406 3.664062 -10.109375 3.59375 -5.765625 C 3.527344 -2.035156 5.5625 0 9.292969 0 L 9.769531 0 C 13.5 0 15.535156 -2.035156 15.46875 -5.765625 C 15.46875 -10.109375 15.398438 -14.316406 15.46875 -18.792969 L 15.46875 -24.421875 C 16.621094 -26.867188 18.589844 -28.289062 21.167969 -28.359375 C 24.21875 -28.425781 25.78125 -26.933594 25.78125 -22.523438 C 25.78125 -17.84375 25.710938 -12.074219 25.644531 -5.835938 C 25.644531 -2.035156 27.679688 0 31.410156 0 L 31.613281 0 C 35.34375 0 37.378906 -2.035156 37.378906 -5.835938 C 37.3125 -11.941406 37.175781 -17.640625 37.3125 -22.386719 L 37.3125 -24.898438 C 38.464844 -27.070312 40.296875 -28.289062 42.738281 -28.359375 C 45.792969 -28.425781 47.351562 -26.933594 47.351562 -22.523438 C 47.351562 -17.84375 47.285156 -12.074219 47.21875 -5.835938 C 47.21875 -2.035156 49.253906 0 52.984375 0 L 53.1875 0 C 56.917969 0 58.953125 -2.035156 58.953125 -5.835938 Z M 58.953125 -5.835938 "/></g></g></g></svg>